<svg width="360" height="58" viewBox="0 0 360 58" fill="none" xmlns="http://www.w3.org/2000/svg">
<rect x="0.5" y="18.5" width="359" height="39" rx="3.5" stroke="#2E2F42" stroke-opacity="0.4"/>
<path d="M6.41016 10.0801V11H1.89258V10.0801H6.41016ZM2.12109 2.46875V11H0.990234V2.46875H2.12109ZM5.8125 6.13672V7.05664H1.89258V6.13672H5.8125ZM6.35156 2.46875V3.39453H1.89258V2.46875H6.35156ZM9.20461 5.91992V11H8.11477V4.66016H9.14602L9.20461 5.91992ZM8.98195 7.58984L8.47805 7.57227C8.48195 7.13867 8.53859 6.73828 8.64797 6.37109C8.75734 6 8.91945 5.67773 9.1343 5.4043C9.34914 5.13086 9.61672 4.91992 9.93703 4.77148C10.2573 4.61914 10.6284 4.54297 11.0503 4.54297C11.3472 4.54297 11.6206 4.58594 11.8706 4.67188C12.1206 4.75391 12.3374 4.88477 12.521 5.06445C12.7046 5.24414 12.8472 5.47461 12.9488 5.75586C13.0503 6.03711 13.1011 6.37695 13.1011 6.77539V11H12.0171V6.82812C12.0171 6.49609 11.9605 6.23047 11.8472 6.03125C11.7378 5.83203 11.5816 5.6875 11.3784 5.59766C11.1753 5.50391 10.937 5.45703 10.6636 5.45703C10.3433 5.45703 10.0757 5.51367 9.86086 5.62695C9.64602 5.74023 9.47414 5.89648 9.34523 6.0957C9.21633 6.29492 9.12258 6.52344 9.06398 6.78125C9.0093 7.03516 8.98195 7.30469 8.98195 7.58984ZM13.0894 6.99219L12.3628 7.21484C12.3667 6.86719 12.4234 6.5332 12.5327 6.21289C12.646 5.89258 12.8081 5.60742 13.0191 5.35742C13.2339 5.10742 13.4976 4.91016 13.8101 4.76562C14.1226 4.61719 14.48 4.54297 14.8823 4.54297C15.2222 4.54297 15.523 4.58789 15.7847 4.67773C16.0503 4.76758 16.273 4.90625 16.4527 5.09375C16.6363 5.27734 16.7749 5.51367 16.8687 5.80273C16.9624 6.0918 17.0093 6.43555 17.0093 6.83398V11H15.9195V6.82227C15.9195 6.4668 15.8628 6.19141 15.7495 5.99609C15.6402 5.79688 15.4839 5.6582 15.2808 5.58008C15.0816 5.49805 14.8433 5.45703 14.5659 5.45703C14.3277 5.45703 14.1167 5.49805 13.9331 5.58008C13.7495 5.66211 13.5952 5.77539 13.4702 5.91992C13.3452 6.06055 13.2495 6.22266 13.1831 6.40625C13.1206 6.58984 13.0894 6.78516 13.0894 6.99219ZM22.8682 9.91602V6.65234C22.8682 6.40234 22.8174 6.18555 22.7159 6.00195C22.6182 5.81445 22.4698 5.66992 22.2705 5.56836C22.0713 5.4668 21.8252 5.41602 21.5323 5.41602C21.2588 5.41602 21.0186 5.46289 20.8116 5.55664C20.6084 5.65039 20.4483 5.77344 20.3311 5.92578C20.2178 6.07812 20.1612 6.24219 20.1612 6.41797H19.0772C19.0772 6.19141 19.1358 5.9668 19.253 5.74414C19.3702 5.52148 19.5381 5.32031 19.7569 5.14062C19.9795 4.95703 20.2452 4.8125 20.5537 4.70703C20.8662 4.59766 21.2139 4.54297 21.5967 4.54297C22.0577 4.54297 22.4639 4.62109 22.8155 4.77734C23.1709 4.93359 23.4483 5.16992 23.6475 5.48633C23.8506 5.79883 23.9522 6.19141 23.9522 6.66406V9.61719C23.9522 9.82812 23.9698 10.0527 24.0049 10.291C24.044 10.5293 24.1006 10.7344 24.1748 10.9062V11H23.044C22.9893 10.875 22.9463 10.709 22.9151 10.502C22.8838 10.291 22.8682 10.0957 22.8682 9.91602ZM23.0557 7.15625L23.0674 7.91797H21.9717C21.6631 7.91797 21.3877 7.94336 21.1455 7.99414C20.9034 8.04102 20.7002 8.11328 20.5362 8.21094C20.3721 8.30859 20.2471 8.43164 20.1612 8.58008C20.0752 8.72461 20.0323 8.89453 20.0323 9.08984C20.0323 9.28906 20.0772 9.4707 20.167 9.63477C20.2569 9.79883 20.3916 9.92969 20.5713 10.0273C20.7549 10.1211 20.9795 10.168 21.2452 10.168C21.5772 10.168 21.8702 10.0977 22.1241 9.95703C22.378 9.81641 22.5791 9.64453 22.7276 9.44141C22.8799 9.23828 22.962 9.04102 22.9737 8.84961L23.4366 9.37109C23.4092 9.53516 23.335 9.7168 23.2139 9.91602C23.0928 10.1152 22.9307 10.3066 22.7276 10.4902C22.5284 10.6699 22.2901 10.8203 22.0127 10.9414C21.7393 11.0586 21.4307 11.1172 21.087 11.1172C20.6573 11.1172 20.2803 11.0332 19.9561 10.8652C19.6358 10.6973 19.3858 10.4727 19.2061 10.1914C19.0303 9.90625 18.9424 9.58789 18.9424 9.23633C18.9424 8.89648 19.0088 8.59766 19.1416 8.33984C19.2745 8.07812 19.4659 7.86133 19.7159 7.68945C19.9659 7.51367 20.2666 7.38086 20.6182 7.29102C20.9698 7.20117 21.3623 7.15625 21.7959 7.15625H23.0557ZM27.315 4.66016V11H26.2252V4.66016H27.315ZM26.1431 2.97852C26.1431 2.80273 26.1959 2.6543 26.3013 2.5332C26.4107 2.41211 26.5709 2.35156 26.7818 2.35156C26.9888 2.35156 27.147 2.41211 27.2564 2.5332C27.3697 2.6543 27.4263 2.80273 27.4263 2.97852C27.4263 3.14648 27.3697 3.29102 27.2564 3.41211C27.147 3.5293 26.9888 3.58789 26.7818 3.58789C26.5709 3.58789 26.4107 3.5293 26.3013 3.41211C26.1959 3.29102 26.1431 3.14648 26.1431 2.97852ZM30.713 2V11H29.6231V2H30.713Z" fill="#8E8F99"/>
<g clip-path="url(#clip0_297083_8308)">
<path d="M31 32H19C18.175 32 17.5075 32.675 17.5075 33.5L17.5 42.5C17.5 43.325 18.175 44 19 44H31C31.825 44 32.5 43.325 32.5 42.5V33.5C32.5 32.675 31.825 32 31 32ZM30.7 35.1875L25.3975 38.5025C25.1575 38.6525 24.8425 38.6525 24.6025 38.5025L19.3 35.1875C19.1125 35.0675 19 34.865 19 34.6475C19 34.145 19.5475 33.845 19.975 34.1075L25 37.25L30.025 34.1075C30.4525 33.845 31 34.145 31 34.6475C31 34.865 30.8875 35.0675 30.7 35.1875Z" fill="#2E2F42"/>
</g>
<defs>
<clipPath id="clip0_297083_8308">
<rect width="18" height="24" fill="white" transform="translate(16 26)"/>
</clipPath>
</defs>
</svg>
