<svg width="360" height="58" viewBox="0 0 360 58" fill="none" xmlns="http://www.w3.org/2000/svg">
<rect x="0.5" y="18.5" width="359" height="39" rx="3.5" stroke="#2E2F42" stroke-opacity="0.4"/>
<path d="M4.13672 7.6543H1.85742V6.73438H4.13672C4.57812 6.73438 4.93555 6.66406 5.20898 6.52344C5.48242 6.38281 5.68164 6.1875 5.80664 5.9375C5.93555 5.6875 6 5.40234 6 5.08203C6 4.78906 5.93555 4.51367 5.80664 4.25586C5.68164 3.99805 5.48242 3.79102 5.20898 3.63477C4.93555 3.47461 4.57812 3.39453 4.13672 3.39453H2.12109V11H0.990234V2.46875H4.13672C4.78125 2.46875 5.32617 2.58008 5.77148 2.80273C6.2168 3.02539 6.55469 3.33398 6.78516 3.72852C7.01562 4.11914 7.13086 4.56641 7.13086 5.07031C7.13086 5.61719 7.01562 6.08398 6.78516 6.4707C6.55469 6.85742 6.2168 7.15234 5.77148 7.35547C5.32617 7.55469 4.78125 7.6543 4.13672 7.6543ZM9.96047 2V11H8.87648V2H9.96047ZM9.70266 7.58984L9.25148 7.57227C9.25539 7.13867 9.31984 6.73828 9.44484 6.37109C9.56984 6 9.74562 5.67773 9.97219 5.4043C10.1987 5.13086 10.4683 4.91992 10.7808 4.77148C11.0972 4.61914 11.4468 4.54297 11.8296 4.54297C12.1421 4.54297 12.4234 4.58594 12.6734 4.67188C12.9234 4.75391 13.1362 4.88672 13.312 5.07031C13.4917 5.25391 13.6284 5.49219 13.7222 5.78516C13.8159 6.07422 13.8628 6.42773 13.8628 6.8457V11H12.773V6.83398C12.773 6.50195 12.7241 6.23633 12.6265 6.03711C12.5288 5.83398 12.3862 5.6875 12.1987 5.59766C12.0112 5.50391 11.7808 5.45703 11.5073 5.45703C11.2378 5.45703 10.9917 5.51367 10.7691 5.62695C10.5503 5.74023 10.3609 5.89648 10.2007 6.0957C10.0445 6.29492 9.92141 6.52344 9.83156 6.78125C9.74562 7.03516 9.70266 7.30469 9.70266 7.58984ZM15.6788 7.90039V7.76562C15.6788 7.30859 15.7452 6.88477 15.878 6.49414C16.0108 6.09961 16.2022 5.75781 16.4522 5.46875C16.7022 5.17578 17.0049 4.94922 17.3604 4.78906C17.7159 4.625 18.1143 4.54297 18.5557 4.54297C19.001 4.54297 19.4014 4.625 19.7569 4.78906C20.1163 4.94922 20.4209 5.17578 20.6709 5.46875C20.9248 5.75781 21.1182 6.09961 21.251 6.49414C21.3838 6.88477 21.4502 7.30859 21.4502 7.76562V7.90039C21.4502 8.35742 21.3838 8.78125 21.251 9.17188C21.1182 9.5625 20.9248 9.9043 20.6709 10.1973C20.4209 10.4863 20.1182 10.7129 19.7627 10.877C19.4112 11.0371 19.0127 11.1172 18.5674 11.1172C18.1221 11.1172 17.7217 11.0371 17.3663 10.877C17.0108 10.7129 16.7061 10.4863 16.4522 10.1973C16.2022 9.9043 16.0108 9.5625 15.878 9.17188C15.7452 8.78125 15.6788 8.35742 15.6788 7.90039ZM16.7627 7.76562V7.90039C16.7627 8.2168 16.7998 8.51562 16.8741 8.79688C16.9483 9.07422 17.0596 9.32031 17.208 9.53516C17.3604 9.75 17.5498 9.91992 17.7764 10.0449C18.003 10.166 18.2666 10.2266 18.5674 10.2266C18.8643 10.2266 19.1241 10.166 19.3467 10.0449C19.5733 9.91992 19.7608 9.75 19.9092 9.53516C20.0577 9.32031 20.169 9.07422 20.2432 8.79688C20.3213 8.51562 20.3604 8.2168 20.3604 7.90039V7.76562C20.3604 7.45312 20.3213 7.1582 20.2432 6.88086C20.169 6.59961 20.0557 6.35156 19.9034 6.13672C19.7549 5.91797 19.5674 5.74609 19.3409 5.62109C19.1182 5.49609 18.8565 5.43359 18.5557 5.43359C18.2588 5.43359 17.9971 5.49609 17.7705 5.62109C17.5479 5.74609 17.3604 5.91797 17.208 6.13672C17.0596 6.35156 16.9483 6.59961 16.8741 6.88086C16.7998 7.1582 16.7627 7.45312 16.7627 7.76562ZM24.3736 6.01367V11H23.2896V4.66016H24.315L24.3736 6.01367ZM24.1158 7.58984L23.6646 7.57227C23.6685 7.13867 23.733 6.73828 23.858 6.37109C23.983 6 24.1588 5.67773 24.3853 5.4043C24.6119 5.13086 24.8814 4.91992 25.1939 4.77148C25.5103 4.61914 25.8599 4.54297 26.2427 4.54297C26.5552 4.54297 26.8365 4.58594 27.0865 4.67188C27.3365 4.75391 27.5494 4.88672 27.7252 5.07031C27.9048 5.25391 28.0416 5.49219 28.1353 5.78516C28.2291 6.07422 28.2759 6.42773 28.2759 6.8457V11H27.1861V6.83398C27.1861 6.50195 27.1373 6.23633 27.0396 6.03711C26.942 5.83398 26.7994 5.6875 26.6119 5.59766C26.4244 5.50391 26.1939 5.45703 25.9205 5.45703C25.6509 5.45703 25.4048 5.51367 25.1822 5.62695C24.9634 5.74023 24.774 5.89648 24.6138 6.0957C24.4576 6.29492 24.3345 6.52344 24.2447 6.78125C24.1588 7.03516 24.1158 7.30469 24.1158 7.58984ZM33.0333 11.1172C32.5919 11.1172 32.1915 11.043 31.8321 10.8945C31.4766 10.7422 31.17 10.5293 30.9122 10.2559C30.6583 9.98242 30.463 9.6582 30.3263 9.2832C30.1895 8.9082 30.1212 8.49805 30.1212 8.05273V7.80664C30.1212 7.29102 30.1973 6.83203 30.3497 6.42969C30.502 6.02344 30.7091 5.67969 30.9708 5.39844C31.2325 5.11719 31.5294 4.9043 31.8614 4.75977C32.1934 4.61523 32.5372 4.54297 32.8927 4.54297C33.3458 4.54297 33.7364 4.62109 34.0645 4.77734C34.3966 4.93359 34.668 5.15234 34.879 5.43359C35.0899 5.71094 35.2462 6.03906 35.3477 6.41797C35.4493 6.79297 35.5001 7.20312 35.5001 7.64844V8.13477H30.7657V7.25H34.4161V7.16797C34.4005 6.88672 34.3419 6.61328 34.2403 6.34766C34.1427 6.08203 33.9864 5.86328 33.7716 5.69141C33.5567 5.51953 33.2638 5.43359 32.8927 5.43359C32.6466 5.43359 32.42 5.48633 32.213 5.5918C32.0059 5.69336 31.8282 5.8457 31.6798 6.04883C31.5313 6.25195 31.4161 6.5 31.3341 6.79297C31.252 7.08594 31.211 7.42383 31.211 7.80664V8.05273C31.211 8.35352 31.252 8.63672 31.3341 8.90234C31.42 9.16406 31.543 9.39453 31.7032 9.59375C31.8673 9.79297 32.0645 9.94922 32.295 10.0625C32.5294 10.1758 32.795 10.2324 33.0919 10.2324C33.4747 10.2324 33.7989 10.1543 34.0645 9.99805C34.3302 9.8418 34.5626 9.63281 34.7618 9.37109L35.418 9.89258C35.2813 10.0996 35.1075 10.2969 34.8966 10.4844C34.6856 10.6719 34.4259 10.8242 34.1173 10.9414C33.8126 11.0586 33.4513 11.1172 33.0333 11.1172Z" fill="#8E8F99"/>
<g clip-path="url(#clip0_297083_8302)">
<path d="M30.7263 39.8651L28.8881 39.6552C28.4467 39.6046 28.0125 39.7566 27.7013 40.0677L26.3697 41.3993C24.3217 40.3572 22.6428 38.6855 21.6007 36.6303L22.9395 35.2914C23.2507 34.9803 23.4026 34.546 23.352 34.1046L23.1421 32.2809C23.0553 31.55 22.4401 31 21.702 31H20.45C19.6323 31 18.952 31.6803 19.0027 32.498C19.3862 38.6783 24.3289 43.6138 30.5019 43.9973C31.3197 44.048 31.9999 43.3677 31.9999 42.55V41.298C32.0072 40.5671 31.4572 39.952 30.7263 39.8651Z" fill="#2E2F42"/>
</g>
<defs>
<clipPath id="clip0_297083_8302">
<rect width="18" height="24" fill="white" transform="translate(16 26)"/>
</clipPath>
</defs>
</svg>
